<svg id="main_svg" 
    xmlns="http://www.w3.org/2000/svg" width="100%" height="60%">
    <g id="svg_g_bezier_cells">
        <path d="M576.3698732858692,60.18068511523117 C583.984751347278,115.76137023046235 583.984751347278,115.76137023046235 616.8922543763999,171.78176023507984 C649.7997574055217,227.8021502396973 649.7997574055217,227.8021502396973 672.906306027839,240.99711593608353 C696.0128546501563,254.19208163246975 696.0128546501563,254.19208163246975 703.3074950116553,251.65967803102046 C710.6021353731543,249.12727442957117 710.6021353731543,249.12727442957117 719.2194300309741,237.11618540058447 C727.836724688794,225.10509637159777 727.836724688794,225.10509637159777 731.861139051724,114.85254818579888 C735.885553414654,4.6000000000000005 735.885553414654,4.6000000000000005 652.3202743195573,4.6000000000000005 C568.7549952244603,4.6000000000000005 568.7549952244603,4.6000000000000005 576.3698732858692,60.18068511523117 Z" fill="#221155" fill-opacity="0.2" clip-path="url(#cut-off-cells)"></path>
        <path d="M762.9249141647053,243.33425201041723 C788.7808764318553,262.2784494962111 789.78354020176,262.15060208164834 812.3037165417627,235.17299349172183 C834.8238928817652,208.1953849017953 834.8238928817652,208.1953849017953 845.2282295978612,157.8090035164298 C855.6325663139571,107.42262213106434 855.6325663139571,107.42262213106434 856.6660466734891,56.01131106553217 C857.6995270330209,4.6 857.6995270330209,4.6 801.3956036777847,4.6 C745.0916803225487,4.599999999999999 745.0916803225487,4.599999999999999 741.0803161100521,114.49502726231167 C737.0689518975555,224.39005452462334 737.0689518975555,224.39005452462334 762.9249141647053,243.33425201041723 Z" fill="#221155" fill-opacity="0.2" clip-path="url(#cut-off-cells)"></path>
        <path d="M894.6165919235428,186.84900440251724 C924.3933152756199,266.5461825709933 924.3933152756199,266.5461825709933 934.3880556568974,266.19302638105086 C944.3827960381751,265.8398701911084 944.3827960381751,265.8398701911084 952.55433437057,258.8725078213277 C960.7258727029649,251.905145451547 960.7258727029649,251.905145451547 963.903273765698,128.25257272577352 C967.0806748284311,4.599999999999998 967.0806748284311,4.599999999999998 916.9910302630974,4.599999999999998 C866.9013856977635,4.599999999999998 866.9013856977635,4.599999999999998 865.8706271346147,55.87591311702058 C864.8398685714658,107.15182623404117 864.8398685714658,107.15182623404117 894.6165919235428,186.84900440251724 Z" fill="#221155" fill-opacity="0.2" clip-path="url(#cut-off-cells)"></path>
        <path d="M1092.6815141834695,283.7494307483312 C1215.4000000000003,316.92149259708447 1215.4000000000003,316.92149259708447 1215.4000000000003,160.76074629854224 C1215.4000000000003,4.600000000000001 1215.4000000000003,4.600000000000001 1095.8418558412332,4.600000000000001 C976.2837116824659,4.6000000000000005 976.2837116824659,4.6000000000000005 973.1233700247024,127.58868444978897 C969.9630283669389,250.57736889957795 969.9630283669389,250.57736889957795 1092.6815141834695,283.7494307483312 Z" fill="#221155" fill-opacity="0.2" clip-path="url(#cut-off-cells)"></path>
        <path d="M129.69031445664396,86.71494371544229 C254.78062891328793,156.3078764840482 254.78062891328793,156.3078764840482 387.10054659899026,213.5253244333096 C519.4204642846926,270.742772382571 519.4204642846926,270.742772382571 544.7417006776558,218.03208797705895 C570.062937070619,165.32140357154694 570.062937070619,165.32140357154694 572.4916943446337,141.35027069699916 C574.9204516186485,117.37913782245137 574.9204516186485,117.37913782245137 567.1947517589914,60.98956891122568 C559.4690518993343,4.6000000000000005 559.4690518993343,4.6000000000000005 282.03452594966717,4.6000000000000005 C4.6000000000000005,4.6000000000000005 4.6000000000000005,4.6000000000000005 4.6,10.86100547341819 C4.6,17.12201094683638 4.6,17.12201094683638 129.69031445664396,86.71494371544229 Z" fill="#221155" fill-opacity="0.2" clip-path="url(#cut-off-cells)"></path>
        <path d="M855.9913534132045,241.86497019098448 C868.1120111209365,273.85270442744826 868.1120111209365,273.85270442744826 890.088162740296,273.54932545726837 C915.829405730022,269.9112155261912 915.829405730022,269.9112155261912 888.6648781085746,197.2055597657842 C861.5003504871272,124.49990400537719 861.5003504871272,124.49990400537719 852.6855230962999,167.18856997994897 C843.8706957054725,209.87723595452073 843.8706957054725,209.87723595452073 855.9913534132045,241.86497019098448 Z" fill="#221155" fill-opacity="0.2" clip-path="url(#cut-off-cells)"></path>
        <path d="M586.3946480162233,222.76350358755147 C593.6012630809762,279.00143922471386 593.6012630809762,279.00143922471386 613.6020078022107,283.91960565534737 C633.6027525234451,288.8377720859808 633.6027525234451,288.8377720859808 637.6381818559829,260.4851250753118 C641.6736111885207,232.13247806464287 641.6736111885207,232.13247806464287 612.1922176762192,181.9445570614247 C582.7108241639178,131.7566360582065 582.7108241639178,131.7566360582065 580.9494285576941,149.1411020042978 C579.1880329514703,166.52556795038907 579.1880329514703,166.52556795038907 586.3946480162233,222.76350358755147 Z" fill="#221155" fill-opacity="0.2" clip-path="url(#cut-off-cells)"></path>
        <path d="M657.9777365210798,290.45837847105713 C673.5115703414817,288.9062959453978 673.5115703414817,288.9062959453978 681.4013987280363,274.9271887540108 C689.2912271145908,260.94808156262377 689.2912271145908,260.94808156262377 669.6726617564545,249.74492434757806 C650.0540963983182,238.54176713253236 650.0540963983182,238.54176713253236 646.248999549498,265.2761140646244 C642.4439027006778,292.0104609967164 642.4439027006778,292.0104609967164 657.9777365210798,290.45837847105713 Z" fill="#221155" fill-opacity="0.2" clip-path="url(#cut-off-cells)"></path>
        <path d="M529.0797194919917,287.15542092569035 C531.6345160971042,297.11067410802826 531.6345160971042,297.11067410802826 550.2566505383763,298.89096310937174 C568.8787849796483,300.6712521107152 568.8787849796483,300.6712521107152 576.7523067224645,291.00609459049747 C584.6258284652805,281.34093707027967 584.6258284652805,281.34093707027967 578.2988695084297,231.96753396809356 C571.9719105515788,182.59413086590746 571.9719105515788,182.59413086590746 549.248416719229,229.89714930462998 C526.524922886879,277.2001677433525 526.524922886879,277.2001677433525 529.0797194919917,287.15542092569035 Z" fill="#221155" fill-opacity="0.2" clip-path="url(#cut-off-cells)"></path>
        <path d="M808.4584604438224,278.4796215813724 C818.7385066894672,290.5088787265074 818.7385066894672,290.5088787265074 834.8679861415618,291.18375946787626 C850.9974655936564,291.8586402092451 850.9974655936564,291.8586402092451 855.4159318883397,284.91509891015903 C859.834398183023,277.971557611073 859.834398183023,277.971557611073 848.7085306967446,248.60918298728055 C837.5826632104661,219.24680836348807 837.5826632104661,219.24680836348807 817.8805387043219,242.84858639986268 C798.1784141981777,266.4503644362373 798.1784141981777,266.4503644362373 808.4584604438224,278.4796215813724 Z" fill="#221155" fill-opacity="0.2" clip-path="url(#cut-off-cells)"></path>
        <path d="M730.3501436290821,276.3937273751335 C741.8541969915941,299.36873379185766 741.8541969915941,299.36873379185766 749.4041247297741,298.4153527379126 C756.954052467954,297.4619716839675 756.954052467954,297.4619716839675 768.9394564631677,282.6947883202432 C780.9248604583815,267.927604956519 780.9248604583815,267.927604956519 757.1685369817724,250.52177496545863 C733.4122135051633,233.11594497439827 733.4122135051633,233.11594497439827 726.1291518858668,243.26733296640379 C718.8460902665702,253.4187209584093 718.8460902665702,253.4187209584093 730.3501436290821,276.3937273751335 Z" fill="#221155" fill-opacity="0.2" clip-path="url(#cut-off-cells)"></path>
        <path d="M395.42594435789647,248.46714274953692 C490.98736301787153,311.10805015336075 490.98736301787153,311.10805015336075 504.1553024845243,308.4502528307863 C517.3232419511771,305.79245550821196 517.3232419511771,305.79245550821196 520.1050613665352,302.91376124798705 C522.8868807818933,300.03506698776215 522.8868807818933,300.03506698776215 520.3221205204582,290.0409885145517 C517.7573602590229,280.0469100413412 517.7573602590229,280.0469100413412 408.81094297847216,232.93657269352715 C299.8645256979214,185.8262353457131 299.8645256979214,185.8262353457131 395.42594435789647,248.46714274953692 Z" fill="#221155" fill-opacity="0.2" clip-path="url(#cut-off-cells)"></path>
        <path d="M959.0585051675822,286.38164635364444 C966.2738664691262,301.19421357317174 966.2738664691262,301.19421357317174 1085.5675564341213,312.39857959222047 C1204.8612463991167,323.60294561126926 1204.8612463991167,323.60294561126926 1085.6363766835107,291.3752439263867 C966.4115069679046,259.14754224150414 966.4115069679046,259.14754224150414 959.1273254169714,265.3583106878107 C951.8431438660382,271.5690791341172 951.8431438660382,271.5690791341172 959.0585051675822,286.38164635364444 Z" fill="#221155" fill-opacity="0.2" clip-path="url(#cut-off-cells)"></path>
        <path d="M695.3840698445492,311.8689744628946 C708.9739328412518,330.7892330682655 711.4699455353622,331.1334055924582 722.6126954942565,317.43804556323545 C733.7554454531509,303.7426855340127 733.7554454531509,303.7426855340127 722.4695434136086,281.2033540821991 C711.1836413740662,258.6640226303855 711.1836413740662,258.6640226303855 704.9409042491956,260.8312480444531 C698.698167124325,262.9984734585207 698.698167124325,262.9984734585207 690.2461869860858,277.9735946580222 C681.7942068478467,292.9487158575236 681.7942068478467,292.9487158575236 695.3840698445492,311.8689744628946 Z" fill="#221155" fill-opacity="0.2" clip-path="url(#cut-off-cells)"></path>
        <path d="M776.9971907975776,316.2145608540536 C788.7072200662124,330.6354156922452 788.7072200662124,330.6354156922452 793.6204293398096,330.3039972179076 C798.5336386134069,329.97257874356995 798.5336386134069,329.97257874356995 804.908925200683,312.95989669686423 C811.2842117879592,295.94721465015857 811.2842117879592,295.94721465015857 800.7793218129443,283.65485528024374 C789.9525592715723,271.40353716130704 789.9525592715723,271.40353716130704 777.6198604002575,286.59862158858454 C765.2871615289428,301.793706015862 765.2871615289428,301.793706015862 776.9971907975776,316.2145608540536 Z" fill="#221155" fill-opacity="0.2" clip-path="url(#cut-off-cells)"></path>
        <path d="M864.6584463332736,322.38196108545844 C870.9197443431759,347.39714621393205 870.9197443431759,347.39714621393205 879.9219317527053,350.2044615417791 C888.9241191622347,353.0117768696261 888.9241191622347,353.0117768696261 897.2759776627963,341.5855091220444 C905.6278361633581,330.15924137446274 905.6278361633581,330.15924137446274 907.2658901208915,306.32484656036956 C908.9039440784248,282.4904517462764 908.9039440784248,282.4904517462764 888.201900278224,282.7762417625406 C867.4998564780233,283.0620317788049 867.4998564780233,283.0620317788049 862.9485024006972,290.2144038678949 C858.3971483233712,297.36677595698484 858.3971483233712,297.36677595698484 864.6584463332736,322.38196108545844 Z" fill="#221155" fill-opacity="0.2" clip-path="url(#cut-off-cells)"></path>
        <path d="M933.2271355624235,324.3428881955907 C951.3572901936694,322.12693864568996 951.3572901936694,322.12693864568996 954.7909558469571,313.90255729511875 C958.2246215002447,305.67817594454755 958.2246215002447,305.67817594454755 950.7730290776069,290.38064487992534 C943.3214366549691,275.08311381530314 943.3214366549691,275.08311381530314 933.1894012173575,275.4411212166972 C918.2956682831641,280.0165508547078 918.2956682831641,280.0165508547078 916.6963246071709,303.2876943000997 C915.0969809311777,326.55883774549153 915.0969809311777,326.55883774549153 933.2271355624235,324.3428881955907 Z" fill="#221155" fill-opacity="0.2" clip-path="url(#cut-off-cells)"></path>
        <path d="M579.1023443110455,317.09272050289553 C582.2167101141006,327.67460282373565 582.2167101141006,327.67460282373565 605.949328815776,342.46809276959834 C629.6819475174512,357.261582715461 629.6819475174512,357.261582715461 632.3537251560774,327.96163561954495 C635.0255027947037,298.66168852362887 635.0255027947037,298.66168852362887 613.0965501478307,293.2693773737195 C591.1675975009578,287.87706622381023 591.1675975009578,287.87706622381023 583.5777880044741,297.1939522029328 C575.9879785079903,306.5108381820554 575.9879785079903,306.5108381820554 579.1023443110455,317.09272050289553 Z" fill="#221155" fill-opacity="0.2" clip-path="url(#cut-off-cells)"></path>
        <path d="M822.4317272316139,344.71967737505395 C837.5738617239577,356.6146397665013 837.5738617239577,356.6146397665013 849.590695064846,352.3486748575165 C861.6075284057343,348.0827099485318 861.6075284057343,348.0827099485318 855.7173479458968,324.55021646077273 C849.8271674860594,301.01772297301375 849.8271674860594,301.01772297301375 834.7543483443366,300.3870544268219 C819.6815292026138,299.7563858806301 819.6815292026138,299.7563858806301 813.485560970942,316.2905504321183 C807.2895927392701,332.82471498360655 807.2895927392701,332.82471498360655 822.4317272316139,344.71967737505395 Z" fill="#221155" fill-opacity="0.2" clip-path="url(#cut-off-cells)"></path>
        <path d="M669.6750806516368,350.3848186623526 C699.6514241973567,333.580315218928 699.6514241973567,333.580315218928 686.9047096464906,315.83391588217603 C674.1579950956244,298.0875165454241 674.1579950956244,298.0875165454241 659.0998164057315,299.5920733910203 C644.0416377158386,301.0966302366165 644.0416377158386,301.0966302366165 641.1617511176248,332.6787962634618 C639.698737105917,367.18932210577725 639.698737105917,367.18932210577725 669.6750806516368,350.3848186623526 Z" fill="#221155" fill-opacity="0.2" clip-path="url(#cut-off-cells)"></path>
        <path d="M995.1872694081895,390.0143921359007 C1030.699455998202,453.94537628197287 1030.699455998202,453.94537628197287 1090.6500600451532,512.1726881409869 C1150.6006640921046,570.4000000000009 1150.6006640921046,570.4000000000009 1183.000332046052,570.4000000000008 C1215.3999999999996,570.4000000000007 1215.3999999999996,570.4000000000007 1215.3999999999996,452.11663081340305 C1215.3999999999999,333.83326162680544 1215.3999999999999,333.83326162680544 1090.805430935209,322.1310235939539 C966.210861870418,310.42878556110236 966.210861870418,310.42878556110236 962.9429723442975,318.25609677546544 C959.6750828181771,326.0834079898285 959.6750828181771,326.0834079898285 995.1872694081895,390.0143921359007 Z" fill="#221155" fill-opacity="0.2" clip-path="url(#cut-off-cells)"></path>
        <path d="M445.3686716725608,444.1683533069731 C484.62320149971873,317.93670661394617 484.62320149971873,317.93670661394617 367.4927547349564,241.1572115745627 C250.36230797019405,164.37771653517922 250.36230797019405,164.37771653517922 127.48115398509702,96.01383140978405 C4.6000000000000005,27.64994628438889 4.6000000000000005,27.64994628438889 4.6,299.0249731421944 C4.599999999999999,570.4 4.599999999999999,570.4 205.35707092270144,570.4 C406.11414184540286,570.4 406.11414184540286,570.4 445.3686716725608,444.1683533069731 Z" fill="#221155" fill-opacity="0.2" clip-path="url(#cut-off-cells)"></path>
        <path d="M727.2826654190328,347.76626790560886 C735.3934880470574,359.28798712361043 735.3934880470574,359.28798712361043 746.5232757827565,361.26147647884477 C757.6530635184556,363.23496583407905 757.6530635184556,363.23496583407905 769.1726454103458,349.29729527380834 C780.692227302236,335.3596247135377 780.692227302236,335.3596247135377 769.0473586704952,321.01901494256606 C757.4024900387543,306.6784051715945 757.4024900387543,306.6784051715945 749.5033293757709,307.6758862574163 C741.6041687127876,308.6733673432382 741.6041687127876,308.6733673432382 730.3880057518978,322.45895801542275 C719.1718427910081,336.2445486876073 719.1718427910081,336.2445486876073 727.2826654190328,347.76626790560886 Z" fill="#221155" fill-opacity="0.2" clip-path="url(#cut-off-cells)"></path>
        <path d="M530.0310832878033,344.1731098633295 C535.5051284256105,376.8002237046065 535.5051284256105,376.8002237046065 554.3567651987288,353.225934786679 C573.2084019718471,329.6516458687515 573.2084019718471,329.6516458687515 570.2823611932953,319.7096476762972 C567.3563204147434,309.7676494838429 567.3563204147434,309.7676494838429 548.5530425244497,307.9700430428162 C524.5570381499962,311.5459960220526 524.5570381499962,311.5459960220526 530.0310832878033,344.1731098633295 Z" fill="#221155" fill-opacity="0.2" clip-path="url(#cut-off-cells)"></path>
        <path d="M502.5793685361166,478.9317512180039 C527.9655844413302,387.46350243600847 527.9655844413302,387.46350243600847 521.9260257059591,351.4657411006015 C515.886466970588,315.46797976519457 515.886466970588,315.46797976519457 504.75744769064704,317.7142444689482 C493.6284284107061,319.9605091727018 493.6284284107061,319.9605091727018 454.68857172609296,445.18025458635054 C415.74871504147984,570.3999999999993 415.74871504147984,570.3999999999993 446.4709338361914,570.3999999999994 C477.193152630903,570.3999999999994 477.193152630903,570.3999999999994 502.5793685361166,478.9317512180039 Z" fill="#221155" fill-opacity="0.2" clip-path="url(#cut-off-cells)"></path>
        <path d="M954.8589261440159,399.62095589633606 C1013.0866356955671,441.1838207083389 1013.0866356955671,441.1838207083389 982.5705055725672,386.2470111669725 C952.0543754495673,331.31020162560617 952.0543754495673,331.31020162560617 932.3587043334894,333.71749568527434 C912.6630332174117,336.1247897449425 912.6630332174117,336.1247897449425 904.6471249049382,347.0914404146379 C896.6312165924647,358.0580910843332 896.6312165924647,358.0580910843332 954.8589261440159,399.62095589633606 Z" fill="#221155" fill-opacity="0.2" clip-path="url(#cut-off-cells)"></path>
        <path d="M783.042138747168,392.8190835650896 C800.7759736485608,417.22433614161076 800.7759736485608,417.22433614161076 815.7896938249457,390.1098043458878 C830.8034140013308,362.9952725501649 830.8034140013308,362.9952725501649 815.5758209612113,351.0331778655569 C800.3482279210918,339.0710831809489 800.3482279210918,339.0710831809489 794.635780133183,339.45641395461985 C788.923332345274,339.8417447282908 788.923332345274,339.8417447282908 777.1158180955247,354.1277878584296 C765.3083038457752,368.4138309885684 765.3083038457752,368.4138309885684 783.042138747168,392.8190835650896 Z" fill="#221155" fill-opacity="0.2" clip-path="url(#cut-off-cells)"></path>
        <path d="M623.1352195317188,472.4122919065768 C632.9791729662192,374.4245838131535 630.0232306369131,368.31530989789377 604.6796013160756,352.5176126331156 C579.335971995238,336.71991536833747 579.335971995238,336.71991536833747 558.0938880803246,363.283498650565 C536.8518041654114,389.84708193279243 536.8518041654114,389.84708193279243 511.7963591262542,480.12354096639626 C486.74091408709694,570.4000000000001 486.74091408709694,570.4000000000001 550.0160900921576,570.4000000000001 C613.2912660972183,570.4000000000001 613.2912660972183,570.4000000000001 623.1352195317188,472.4122919065768 Z" fill="#221155" fill-opacity="0.2" clip-path="url(#cut-off-cells)"></path>
        <path d="M675.9061326058527,467.14503814711844 C727.382212016655,363.8900762942294 727.382212016655,363.8900762942294 719.0886257884437,352.1087347196317 C707.291582464591,339.84430518844925 707.291582464591,339.84430518844925 674.6576502499157,358.1386320277978 C642.0237180352404,376.43295886714634 642.0237180352404,376.43295886714634 632.2806463893598,473.4164794335769 C624.4300531950505,570.4000000000075 624.4300531950505,570.4000000000075 675.9061326058527,467.14503814711844 Z" fill="#221155" fill-opacity="0.2" clip-path="url(#cut-off-cells)"></path>
        <path d="M806.8029949013428,498.6670596265949 C807.6902592741985,570.3999999999946 814.5012596856102,570.3999999999946 850.4872713720738,466.14222875079207 C886.4732830585373,361.8844575015895 886.4732830585373,361.8844575015895 876.8259813292107,358.8759644781678 C867.1786795998839,355.86747145474607 867.1786795998839,355.86747145474607 853.541996417008,360.7084815846904 C839.9053132341322,365.54949171463466 839.9053132341322,365.54949171463466 822.9105218813097,396.2418054839149 C805.9157305284871,426.93411925319515 805.9157305284871,426.93411925319515 806.8029949013428,498.6670596265949 Z" fill="#221155" fill-opacity="0.2" clip-path="url(#cut-off-cells)"></path>
        <path d="M797.6045067684654,498.8461852213174 C796.7194579991753,427.2923704426347 796.7194579991753,427.2923704426347 776.7897094465173,399.8651078162094 C756.8599608938594,372.437845189784 756.8599608938594,372.437845189784 746.0830149120425,370.5269203202258 C735.3060689302255,368.6159954506676 735.3060689302255,368.6159954506676 685.0080045291659,469.50799772533384 C634.7099401281064,570.4000000000001 634.7099401281064,570.4000000000001 716.5997478329309,570.4000000000001 C798.4895555377555,570.4000000000001 798.4895555377555,570.4000000000001 797.6045067684654,498.8461852213174 Z" fill="#221155" fill-opacity="0.2" clip-path="url(#cut-off-cells)"></path>
        <path d="M1080.7240999907244,515.3571814054287 C1024.0522372885403,460.31436281085746 1024.0522372885403,460.31436281085746 959.1357976543562,413.97709099693884 C894.2193580201722,367.6398191830202 894.2193580201722,367.6398191830202 859.22661767572,469.01990959151016 C824.233877331268,570.4000000000001 824.233877331268,570.4000000000001 980.8149200120884,570.4 C1137.3959626929086,570.3999999999999 1137.3959626929086,570.3999999999999 1080.7240999907244,515.3571814054287 Z" fill="#221155" fill-opacity="0.2" clip-path="url(#cut-off-cells)"></path>
    </g>
    <g id="svg_g_seeds">
        <circle id="c_0" cx="749.1028009103472" cy="272.0935845262181" r="3" stroke="black" stroke-width="3" fill="red"></circle>
        <circle id="c_1" cx="886.0516329364154" cy="305.9260220203034" r="3" stroke="black" stroke-width="3" fill="red"></circle>
        <circle id="c_2" cx="666.1331790524706" cy="322.6258587686524" r="3" stroke="black" stroke-width="3" fill="red"></circle>
        <circle id="c_3" cx="623.1020921592576" cy="261.14164668417794" r="3" stroke="black" stroke-width="3" fill="red"></circle>
        <circle id="c_4" cx="794.4865344354744" cy="364.25469906963104" r="3" stroke="black" stroke-width="3" fill="red"></circle>
        <circle id="c_5" cx="545.1161817991514" cy="336.3174070654944" r="3" stroke="black" stroke-width="3" fill="red"></circle>
        <circle id="c_6" cx="934.7766794699778" cy="232.00480243851987" r="3" stroke="black" stroke-width="3" fill="red"></circle>
        <circle id="c_7" cx="551.4249371939525" cy="270.3267218281927" r="3" stroke="black" stroke-width="3" fill="red"></circle>
        <circle id="c_8" cx="492.48088776757936" cy="285.45341470158485" r="3" stroke="black" stroke-width="3" fill="red"></circle>
        <circle id="c_9" cx="857.0575044452313" cy="398.90117727434233" r="3" stroke="black" stroke-width="3" fill="red"></circle>
        <circle id="c_10" cx="937.5135968711928" cy="309.4628214374193" r="3" stroke="black" stroke-width="3" fill="red"></circle>
        <circle id="c_11" cx="756.8081745075697" cy="333.11327189464527" r="3" stroke="black" stroke-width="3" fill="red"></circle>
        <circle id="c_12" cx="895.4893212589125" cy="412.1664503798206" r="3" stroke="black" stroke-width="3" fill="red"></circle>
        <circle id="c_13" cx="942.0874511502986" cy="346.88456027831046" r="3" stroke="black" stroke-width="3" fill="red"></circle>
        <circle id="c_14" cx="829.1109439587302" cy="320.17827003475634" r="3" stroke="black" stroke-width="3" fill="red"></circle>
        <circle id="c_15" cx="609.2584680177616" cy="317.43961796595005" r="3" stroke="black" stroke-width="3" fill="red"></circle>
        <circle id="c_16" cx="885.2864193640266" cy="250.49551713712563" r="3" stroke="black" stroke-width="3" fill="red"></circle>
        <circle id="c_17" cx="831.1685658243875" cy="271.00162656588935" r="3" stroke="black" stroke-width="3" fill="red"></circle>
        <circle id="c_18" cx="463.0144569318505" cy="330.405731808926" r="3" stroke="black" stroke-width="3" fill="red"></circle>
        <circle id="c_19" cx="696.0066840559894" cy="375.91505305607166" r="3" stroke="black" stroke-width="3" fill="red"></circle>
        <circle id="c_20" cx="780.7438049198486" cy="228.9084030806648" r="3" stroke="black" stroke-width="3" fill="red"></circle>
        <circle id="c_21" cx="683.9870332175662" cy="225.37660859467059" r="3" stroke="black" stroke-width="3" fill="red"></circle>
        <circle id="c_22" cx="996.8598359471446" cy="233.6001035553502" r="3" stroke="black" stroke-width="3" fill="red"></circle>
        <circle id="c_23" cx="707.4463994119865" cy="292.9517926605376" r="3" stroke="black" stroke-width="3" fill="red"></circle>
        <circle id="c_24" cx="790.5383490412353" cy="305.72367984498885" r="3" stroke="black" stroke-width="3" fill="red"></circle>
        <circle id="c_25" cx="982.2429238791126" cy="287.6746836788547" r="3" stroke="black" stroke-width="3" fill="red"></circle>
        <circle id="c_26" cx="660.5220587256997" cy="266.4676266763806" r="3" stroke="black" stroke-width="3" fill="red"></circle>
        <circle id="c_27" cx="580.0685995705585" cy="364.2677849735114" r="3" stroke="black" stroke-width="3" fill="red"></circle>
        <circle id="c_28" cx="508.0351032215872" cy="249.48304932693412" r="3" stroke="black" stroke-width="3" fill="red"></circle>
        <circle id="c_29" cx="504.1349736069269" cy="343.19306834946326" r="3" stroke="black" stroke-width="3" fill="red"></circle>
        <circle id="c_30" cx="978.5859758619918" cy="326.61047194486093" r="3" stroke="black" stroke-width="3" fill="red"></circle>
        <circle id="c_31" cx="744.8969339170588" cy="400.2884907979593" r="3" stroke="black" stroke-width="3" fill="red"></circle>
    </g>
    <defs>
        <clipPath id="cut-off-cells">
            <path xmlns="http://www.w3.org/2000/svg" d="M373.9654703834825,316.8927715935981 C385.4907219897531,359.27208218748876 385.4907219897531,359.27208218748876 657.2329350161427,423.2824701448161 C928.9751480425324,487.2928581021435 928.9751480425324,487.2928581021435 994.87739574036,353.238042053391 C1060.7796434381878,219.18322600463847 1060.7796434381878,219.18322600463847 1043.1366348098554,183.95661281742963 C1025.4936261815233,148.7299996302208 1025.4936261815233,148.7299996302208 703.905436800884,187.61484605859874 C382.3172474202446,226.49969248697667 382.3172474202446,226.49969248697667 372.3787330987283,250.50657674334207 S362.4402187772119,274.51346099970743 373.9654703834825,316.8927715935981 Z" stroke="red" stroke-width="0" fill="#991155" fill-opacity="0.9"></path>
        </clipPath>
    </defs>
</svg>
