<svg id="main_svg" xmlns="http://www.w3.org/2000/svg" width="100%" height="60%"><g id="svg_g_bezier_cells"><path d="M63.45117565159259,94.47181361003575 C121.90235130318518,127.03240681186537 140.1898704367202,113.1522794363192 154.23822793428434,59.0761397181596 S168.28658543184844,5 86.64329271592422,5 S5,4.999999999999999 5,33.45561020410307 S5,61.91122040820615 63.45117565159259,94.47181361003575 Z" stroke="red" stroke-width="0" fill="#221155" fill-opacity="0.2"/><path d="M355.13315170520866,78.62754396361093 C388.13327994787517,152.25508792722187 388.1332799478751,152.25508792722187 403.0430728593427,161.28511233922552 S417.95286577081004,170.31513675122915 493.976432885405,153.6424603974675 S570.0000000000001,136.96978404370589 570.0000000000001,70.98489202185294 S570.0000000000002,5 446.06651173127113,5 S322.1330234625421,5 355.13315170520866,78.62754396361093 Z" stroke="red" stroke-width="0" fill="#221155" fill-opacity="0.2"/><path d="M194.1432272296064,133.72575696461908 C237.80783011244355,154.13299505328857 237.80783011244355,154.13299505328854 265.75850188199547,79.56649752664427 S293.7091736515473,5.000000000000001 236.1638500414012,5 S178.61852643125508,4.999999999999999 164.54857538901217,59.1592594379748 S150.47862434676924,113.3185188759496 194.1432272296064,133.72575696461908 Z" stroke="red" stroke-width="0" fill="#221155" fill-opacity="0.2"/><path d="M57.624434965796006,207.12142613069554 C110.24886993159201,189.02545639754592 110.24886993159203,189.0254563975459 113.59523220280562,162.37066359563747 S116.94159447401921,135.715870793729 60.970797237009606,104.53698791070005 S4.999999999999999,73.35810502767109 4.999999999999999,149.2877504457581 S4.999999999999999,225.21739586384516 57.624434965796006,207.12142613069554 Z" stroke="red" stroke-width="0" fill="#221155" fill-opacity="0.2"/><path d="M246.80649004350482,182.61647696008833 C247.97109099204226,203.50905359913455 269.1967235256822,218.47104236017785 323.5113186637267,186.08944299369034 S377.8259138017712,153.70784362720283 344.5002204117168,79.35392181360142 S304.38862444688823,5.000000000000026 275.01525677092775,83.3619501605212 S245.64188909496738,161.72390032104215 246.80649004350482,182.61647696008833 Z" stroke="red" stroke-width="0" fill="#221155" fill-opacity="0.2"/><path d="M149.19611975806865,207.43356772132194 C178.20245711479345,224.7457606182885 178.2024571147935,224.74576061828853 208.05887358623994,213.7661292035766 S237.91529005768646,202.78649778886464 236.84030325709216,183.5015709256461 S235.76531645649797,164.2166440624276 190.48839219530817,143.05586594198957 S127.02198470091272,135.70080648293504 123.6058835511283,162.9110906536452 S120.18978240134383,190.1213748243554 149.19611975806865,207.43356772132194 Z" stroke="red" stroke-width="0" fill="#221155" fill-opacity="0.2"/><path d="M283.37622225928874,241.46538158634746 C291.18531649468474,256.6153398884978 291.1853164946844,256.6153398884977 341.8927244138313,265.3997677707671 S392.60013233297803,274.18419565303645 402.04581934684063,226.13854556952742 S384.1884069506107,161.55694118668862 329.8777674872516,193.9361822354429 S275.5671280238927,226.31542328419712 283.37622225928874,241.46538158634746 Z" stroke="red" stroke-width="0" fill="#221155" fill-opacity="0.2"/><path d="M483.2329149539081,319.526635236548 C555.0764585835898,346.40296118233977 569.9999999999999,346.14906447209484 570,246.67825365342344 S570,147.20744283475207 495.6727984727231,163.50809041522052 S421.34559694544623,179.80873799568903 411.6106317866787,229.32580635788042 S411.38937132422643,292.6503092907562 483.2329149539081,319.526635236548 Z" stroke="red" stroke-width="0" fill="#221155" fill-opacity="0.2"/><path d="M36.59988650416629,366.5592297334381 C68.19977300833258,360.43493926685267 68.1997730083325,360.4349392668526 106.37431326466834,334.1230357991936 S144.54885352100422,307.8111323315345 158.07080483499823,270.1288168439352 S171.59275614899227,232.4465013563359 142.9226296026404,215.33497310487903 S114.25250305628849,198.22344485342217 59.626251528144245,217.00777944877157 S5,235.79211404412095 5,304.23781712207216 S5,372.68352020002345 36.59988650416629,366.5592297334381 Z" stroke="red" stroke-width="0" fill="#221155" fill-opacity="0.2"/><path d="M200.69191503475335,324.0810457425911 C246.2692336251373,340.1876545216714 264.55756736678484,332.32162105463004 273.56212310047016,297.0212438729514 S282.5666788341554,261.7208666912726 273.82653132867836,244.76462743084267 S242.37697237294327,211.8004808277146 211.99161256027753,222.97462999144736 S181.60625274761173,234.1487791551801 168.3604245959906,271.0616080593455 S155.1145964443694,307.97443696351075 200.69191503475335,324.0810457425911 Z" stroke="red" stroke-width="0" fill="#221155" fill-opacity="0.2"/><path d="M305.7513251328968,362.06841004724635 C337.11066662147596,389.91074377686334 337.110666621476,389.91074377686334 369.59556055968005,343.33780916378373 S393.6386048010929,284.51304510416566 342.61071726658133,275.67309811365476 S291.5828297320698,266.8331511231439 282.9874066881938,300.5296137203867 S274.3919836443177,334.22607631762935 305.7513251328968,362.06841004724635 Z" stroke="red" stroke-width="0" fill="#221155" fill-opacity="0.2"/><path d="M141.71479226583634,392.7581525671657 C203.20067378193232,421.22723825112143 203.2006737819323,421.2272382511214 221.3271187180779,384.8061786431574 S239.45356365422361,348.38511903519355 194.4515739568001,332.48182624057245 S149.44958425937654,316.5785334459512 114.83924750455847,340.43380016458065 S80.22891074974035,364.28906688321 141.71479226583634,392.7581525671657 Z" stroke="red" stroke-width="0" fill="#221155" fill-opacity="0.2"/><path d="M369.8264488501932,433.34826216329463 C389.692126578123,439.39134741729924 389.6921265781235,439.3913474172989 466.0758323564385,395.8756050782099 S542.4595381347534,352.35986273912096 476.25278338582643,327.5922325451376 S410.0460286368996,302.8246023511542 376.70439685361725,350.62582466359606 S349.96077112226334,427.3051769092901 369.8264488501932,433.34826216329463 Z" stroke="red" stroke-width="0" fill="#221155" fill-opacity="0.2"/><path d="M229.1612506191037,471.5767951718283 C247.31818338442335,515.1623398321298 247.31818338442326,515.1623398321298 293.7651523573145,472.3477408204453 S333.4776738210559,400.0578353802288 300.6641534105038,370.924411566246 S250.10723347606447,349.4226384234306 230.55577566492425,388.70694446747876 S211.00431785378404,427.9912505115268 229.1612506191037,471.5767951718283 Z" stroke="red" stroke-width="0" fill="#221155" fill-opacity="0.2"/><path d="M233.63789286412054,546.9980849170623 C240.16518787611415,523.9961698341247 240.16518787611417,523.9961698341247 220.90458454118655,477.76127445343116 S201.64398120625896,431.5263790727376 135.59309036944384,400.9436107303396 S69.54219953262884,370.36084238794155 37.27109976631442,376.6152189224588 S5,382.86959545697596 5,476.43479772848804 S5.000000000000001,570.0000000000001 116.05529892606347,570.0000000000001 S227.11059785212692,570 233.63789286412054,546.9980849170623 Z" stroke="red" stroke-width="0" fill="#221155" fill-opacity="0.2"/><path d="M427.7965905186304,508.3991634493502 C458.7008317577821,570.0000000000001 458.7008317577823,570.0000000000001 514.3504158788912,570.0000000000001 S570,570 570,463.07525580336585 S555.5768241232696,356.3958955142254 476.23458670137427,401.5971112064629 S396.8923492794787,446.79832689870034 427.7965905186304,508.3991634493502 Z" stroke="red" stroke-width="0" fill="#221155" fill-opacity="0.2"/><path d="M417.15113573951896,509.4803841759335 C386.7893271691125,448.9607683518672 386.7893271691126,448.9607683518674 366.9026309907347,442.9112893422756 S347.01593481235716,436.86181033268355 298.4462936335421,481.63307866724494 S249.87665245472715,526.4043470018061 243.69104383619091,548.202173500903 S237.5054352176546,570 342.50918976379006,570 S447.51294430992544,569.9999999999999 417.15113573951896,509.4803841759335 Z" stroke="red" stroke-width="0" fill="#221155" fill-opacity="0.2"/></g></svg>