<?xml version="1.0" encoding="UTF-8" standalone="no"?>
<!DOCTYPE svg PUBLIC "-//W3C//DTD SVG 20010904//EN"
              "http://www.w3.org/TR/2001/REC-SVG-20010904/DTD/svg10.dtd">

<svg xmlns="http://www.w3.org/2000/svg"
     width="15in" height="15in"
     viewBox="0 0 1080 1080">
  <path id="Selection"
        fill="blue" stroke="black" stroke-width="0"
        d="M 146.42,976.00
           C 140.87,940.21 135.66,904.05 132.17,868.00
             128.79,833.09 126.05,798.09 126.00,763.00
             126.00,763.00 125.02,747.99 125.02,747.99
             125.02,747.99 126.00,733.00 126.00,733.00
             126.00,733.00 126.00,715.00 126.00,715.00
             126.00,715.00 126.91,703.00 126.91,703.00
             126.91,703.00 131.58,656.00 131.58,656.00
             139.74,603.40 154.50,555.14 202.00,525.05
             238.54,501.91 285.71,490.21 328.00,482.58
             328.00,482.58 379.00,473.42 379.00,473.42
             417.10,467.51 455.33,461.70 493.00,453.42
             546.38,441.70 590.96,428.14 632.00,389.91
             660.21,363.63 685.75,324.80 704.30,291.00
             732.21,240.17 754.84,186.83 780.75,135.00
             798.96,98.60 816.48,71.57 853.00,51.27
             861.28,46.67 867.97,43.34 877.00,40.33
             886.19,37.27 898.32,34.12 908.00,34.00
             908.00,34.00 921.00,34.00 921.00,34.00
             948.12,34.04 970.89,51.06 973.31,79.00
             973.35,82.36 973.85,83.44 973.31,87.00
             969.66,130.89 946.93,185.69 930.40,227.00
             930.40,227.00 913.60,269.00 913.60,269.00
             897.52,309.20 880.88,349.63 868.02,391.00
             868.02,391.00 849.85,461.00 849.85,461.00
             840.83,494.34 828.59,537.27 824.28,571.00
             821.51,592.69 820.75,614.14 821.00,636.00
             821.00,636.00 821.91,646.00 821.91,646.00
             821.91,646.00 823.17,667.00 823.17,667.00
             823.17,667.00 828.85,710.00 828.85,710.00
             828.85,710.00 843.72,813.00 843.72,813.00
             843.72,813.00 851.17,880.00 851.17,880.00
             851.17,880.00 854.00,925.00 854.00,925.00
             854.00,925.00 855.00,940.00 855.00,940.00
             855.00,940.00 855.00,990.00 855.00,990.00
             855.00,990.00 854.04,1002.00 854.04,1002.00
             854.04,1002.00 854.04,1013.00 854.04,1013.00
             854.04,1013.00 853.00,1027.00 853.00,1027.00
             852.98,1028.74 853.15,1031.98 851.98,1033.36
             850.49,1035.12 842.56,1034.00 840.00,1034.00
             840.00,1034.00 797.00,1034.00 797.00,1034.00
             797.00,1034.00 782.00,1033.00 782.00,1033.00
             782.00,1033.00 742.00,1033.00 742.00,1033.00
             742.00,1033.00 725.00,1032.00 725.00,1032.00
             725.00,1032.00 687.00,1032.00 687.00,1032.00
             687.00,1032.00 671.00,1031.00 671.00,1031.00
             671.00,1031.00 634.00,1031.00 634.00,1031.00
             634.00,1031.00 632.00,1000.00 632.00,1000.00
             632.00,1000.00 630.96,987.00 630.96,987.00
             630.96,987.00 630.96,972.00 630.96,972.00
             630.96,972.00 630.00,960.00 630.00,960.00
             630.00,960.00 630.00,946.00 630.00,946.00
             630.00,946.00 629.04,935.00 629.04,935.00
             629.04,935.00 629.04,923.00 629.04,923.00
             629.04,923.00 628.00,902.00 628.00,902.00
             628.00,902.00 627.09,892.00 627.09,892.00
             627.09,892.00 623.15,843.00 623.15,843.00
             620.06,817.13 615.04,778.95 599.10,758.00
             587.52,742.78 568.95,734.68 551.00,729.85
             505.73,717.66 437.70,726.42 409.75,768.00
             392.72,793.33 385.67,833.01 381.72,863.00
             381.72,863.00 374.09,945.00 374.09,945.00
             374.09,945.00 372.91,970.00 372.91,970.00
             372.91,970.00 370.91,1001.00 370.91,1001.00
             370.91,1001.00 369.00,1029.00 369.00,1029.00
             369.00,1029.00 276.00,1029.00 276.00,1029.00
             276.00,1029.00 261.00,1030.00 261.00,1030.00
             261.00,1030.00 155.00,1030.00 155.00,1030.00
             155.00,1030.00 146.42,976.00 146.42,976.00 Z" />
</svg>